<?xml version="1.0" standalone="no"?>
<!DOCTYPE svg PUBLIC "-//W3C//DTD SVG 20010904//EN"
 "http://www.w3.org/TR/2001/REC-SVG-20010904/DTD/svg10.dtd">
<svg version="1.0" xmlns="http://www.w3.org/2000/svg"
 width="231.000000pt" height="294.000000pt" viewBox="0 0 231.000000 294.000000"
 preserveAspectRatio="xMidYMid meet">
<metadata>
Created by potrace 1.16, written by Peter Selinger 2001-2019
</metadata>
<g transform="translate(0.000000,294.000000) scale(0.100000,-0.100000)"
fill="#000000" stroke="none">
<path d="M1483 2833 c-24 -2 -43 -7 -43 -12 0 -4 20 -17 44 -28 24 -12 59 -34
77 -50 19 -16 51 -40 71 -53 21 -14 38 -28 38 -32 0 -10 38 -48 48 -48 8 -1
126 -163 145 -200 20 -40 74 -170 94 -225 16 -46 17 -111 20 -745 2 -488 6
-711 15 -750 6 -30 26 -87 45 -127 18 -40 33 -77 33 -83 0 -5 3 -10 8 -10 4 0
18 -17 32 -38 31 -47 118 -137 126 -130 9 10 4 1949 -5 1967 -4 9 -11 32 -14
51 -5 32 -60 159 -90 204 -15 25 -71 88 -117 134 -44 44 -180 123 -239 140
-93 26 -216 41 -288 35z"/>
<path d="M771 2330 c-24 -11 -52 -20 -62 -20 -10 0 -19 -7 -19 -15 0 -8 -3
-14 -7 -14 -26 4 -48 -6 -105 -48 -34 -26 -68 -54 -74 -63 -7 -8 -32 -37 -57
-65 -26 -27 -51 -61 -58 -75 -6 -14 -15 -32 -20 -40 -5 -8 -12 -22 -15 -30 -3
-8 -10 -23 -16 -34 -40 -74 -42 -96 -45 -604 l-4 -492 138 0 138 0 -3 586 c-3
576 -3 587 18 657 12 39 34 87 48 106 34 45 110 121 122 121 5 0 15 6 22 13 7
8 27 19 43 25 17 6 23 11 15 11 -8 0 -35 -8 -59 -19z"/>
<path d="M1190 2335 c0 -3 18 -16 39 -30 65 -40 132 -118 165 -192 l31 -68 5
-670 6 -670 27 -79 c31 -88 49 -123 90 -177 15 -20 27 -39 27 -42 0 -7 30 -38
77 -80 l31 -29 -4 749 c-3 741 -7 857 -26 869 -5 3 -18 25 -29 48 -33 70 -63
117 -101 157 -9 10 -24 29 -33 43 -10 14 -21 26 -26 26 -13 0 -109 73 -109 82
0 4 -5 8 -12 8 -11 0 -80 29 -120 51 -19 10 -38 12 -38 4z"/>
<path d="M925 1770 c-16 -11 -33 -27 -37 -37 -3 -10 -7 -161 -7 -335 -1 -226
-4 -318 -12 -318 -7 0 -9 -10 -4 -27 12 -45 6 -206 -8 -215 -7 -4 48 -8 121
-8 l132 0 0 448 c-1 412 -2 449 -18 467 -43 48 -113 59 -167 25z"/>
</g>
</svg>
